<svg xmlns="http://www.w3.org/2000/svg" xmlns:xlink="http://www.w3.org/1999/xlink" width="500" zoomAndPan="magnify" viewBox="0 0 375 374.999991" height="500" preserveAspectRatio="xMidYMid meet" version="1.0"><defs><g/><clipPath id="0385cae19e"><path d="M 169.03125 181.953125 L 185.570312 181.953125 L 185.570312 198.492188 L 169.03125 198.492188 Z M 169.03125 181.953125 " clip-rule="nonzero"/></clipPath><clipPath id="cacb596e98"><path d="M 177.300781 181.953125 C 172.734375 181.953125 169.03125 185.65625 169.03125 190.222656 C 169.03125 194.789062 172.734375 198.492188 177.300781 198.492188 C 181.867188 198.492188 185.570312 194.789062 185.570312 190.222656 C 185.570312 185.65625 181.867188 181.953125 177.300781 181.953125 Z M 177.300781 181.953125 " clip-rule="nonzero"/></clipPath><clipPath id="24c1f32aa7"><path d="M 165.59375 196 L 170 196 L 170 202.519531 L 165.59375 202.519531 Z M 165.59375 196 " clip-rule="nonzero"/></clipPath><clipPath id="052446f357"><path d="M 165.59375 177.769531 L 188.84375 177.769531 L 188.84375 201 L 165.59375 201 Z M 165.59375 177.769531 " clip-rule="nonzero"/></clipPath><clipPath id="9775575f0f"><path d="M 165.59375 186 L 166 186 L 166 197 L 165.59375 197 Z M 165.59375 186 " clip-rule="nonzero"/></clipPath></defs><rect x="-37.5" width="450" fill="#ffffff" y="-37.499999" height="449.999989" fill-opacity="1"/><rect x="-37.5" width="450" fill="#050a30" y="-37.499999" height="449.999989" fill-opacity="1"/><g fill="#f4f6fc" fill-opacity="1"><g transform="translate(94.801499, 203.249987)"><g><path d="M 13.1875 -24.296875 C 15.113281 -26.359375 17.613281 -27.390625 20.6875 -27.390625 C 24.3125 -27.390625 27.101562 -26.210938 29.0625 -23.859375 C 31.019531 -21.515625 32 -18.039062 32 -13.4375 C 32 -8.800781 31.019531 -5.300781 29.0625 -2.9375 C 27.101562 -0.570312 24.3125 0.609375 20.6875 0.609375 C 16.96875 0.609375 14.128906 -0.859375 12.171875 -3.796875 L 11.3125 0 L 3.09375 0 L 3.09375 -36.765625 L 13.1875 -36.765625 Z M 17.546875 -19.9375 C 16.054688 -19.9375 14.9375 -19.398438 14.1875 -18.328125 C 13.445312 -17.265625 13.078125 -15.890625 13.078125 -14.203125 L 13.078125 -12.53125 C 13.078125 -10.832031 13.445312 -9.457031 14.1875 -8.40625 C 14.9375 -7.363281 16.054688 -6.84375 17.546875 -6.84375 C 20.453125 -6.84375 21.90625 -8.566406 21.90625 -12.015625 L 21.90625 -14.703125 C 21.90625 -18.191406 20.453125 -19.9375 17.546875 -19.9375 Z M 17.546875 -19.9375 "/></g></g></g><g fill="#f4f6fc" fill-opacity="1"><g transform="translate(125.732139, 203.249987)"><g><path d="M 3.390625 -29.921875 L 3.390625 -36.765625 L 13.484375 -36.765625 L 13.484375 -29.921875 Z M 3.390625 0 L 3.390625 -26.78125 L 13.484375 -26.78125 L 13.484375 0 Z M 3.390625 0 "/></g></g></g><g fill="#f4f6fc" fill-opacity="1"><g transform="translate(139.726646, 203.249987)"><g><path d="M 19.328125 -27.4375 C 20.097656 -27.4375 20.785156 -27.34375 21.390625 -27.15625 C 22.003906 -26.96875 22.3125 -26.859375 22.3125 -26.828125 L 22.3125 -18.359375 L 19.0625 -18.359375 C 16.96875 -18.359375 15.457031 -17.816406 14.53125 -16.734375 C 13.601562 -15.648438 13.140625 -14.046875 13.140625 -11.921875 L 13.140625 0 L 3.046875 0 L 3.046875 -26.78125 L 11.3125 -26.78125 L 11.96875 -22.71875 C 12.570312 -24.28125 13.535156 -25.457031 14.859375 -26.25 C 16.179688 -27.039062 17.671875 -27.4375 19.328125 -27.4375 Z M 19.328125 -27.4375 "/></g></g></g><g fill="#f4f6fc" fill-opacity="1"><g transform="translate(159.349629, 203.249987)"><g><path d="M 22.515625 0 L 21.65625 -3.796875 C 19.695312 -0.859375 16.859375 0.609375 13.140625 0.609375 C 9.515625 0.609375 6.722656 -0.570312 4.765625 -2.9375 C 2.804688 -5.300781 1.828125 -8.800781 1.828125 -13.4375 C 1.828125 -18.039062 2.804688 -21.515625 4.765625 -23.859375 C 6.722656 -26.210938 9.515625 -27.390625 13.140625 -27.390625 C 16.210938 -27.390625 18.710938 -26.359375 20.640625 -24.296875 L 20.640625 -36.765625 L 30.734375 -36.765625 L 30.734375 0 Z M 16.28125 -19.9375 C 13.375 -19.9375 11.921875 -18.191406 11.921875 -14.703125 L 11.921875 -12.015625 C 11.921875 -8.566406 13.375 -6.84375 16.28125 -6.84375 C 17.769531 -6.84375 18.882812 -7.363281 19.625 -8.40625 C 20.375 -9.457031 20.75 -10.832031 20.75 -12.53125 L 20.75 -14.203125 C 20.75 -15.890625 20.375 -17.265625 19.625 -18.328125 C 18.882812 -19.398438 17.769531 -19.9375 16.28125 -19.9375 Z M 16.28125 -19.9375 "/></g></g></g><g fill="#f4f6fc" fill-opacity="1"><g transform="translate(190.280272, 203.249987)"><g><path d="M 21.453125 -0.8125 C 20.066406 2.9375 18.367188 5.785156 16.359375 7.734375 C 14.347656 9.679688 11.53125 10.65625 7.90625 10.65625 C 5.707031 10.65625 3.765625 10.347656 2.078125 9.734375 L 2.078125 3.703125 L 6.140625 3.703125 C 8.671875 3.703125 10.175781 2.46875 10.65625 0 L 0 -26.78125 L 10.859375 -26.78125 L 15.96875 -8.984375 L 16.328125 -8.984375 L 21.046875 -26.78125 L 30.984375 -26.78125 Z M 21.453125 -0.8125 "/></g></g></g><g fill="#f4f6fc" fill-opacity="1"><g transform="translate(218.371327, 203.249987)"><g><path d="M 3.09375 0 L 3.09375 -10.09375 L 13.84375 -10.09375 L 13.84375 0 Z M 3.09375 0 "/></g></g></g><g fill="#f4f6fc" fill-opacity="1"><g transform="translate(232.365837, 203.249987)"><g><path d="M 16.28125 -27.390625 C 20.375 -27.390625 23.703125 -26.703125 26.265625 -25.328125 C 28.835938 -23.960938 30.125 -21.742188 30.125 -18.671875 L 30.125 -8.21875 C 30.125 -7.644531 30.257812 -7.171875 30.53125 -6.796875 C 30.800781 -6.421875 31.207031 -6.234375 31.75 -6.234375 L 33.578125 -6.234375 L 33.578125 -0.40625 C 33.472656 -0.332031 33.207031 -0.21875 32.78125 -0.0625 C 32.363281 0.0820312 31.765625 0.226562 30.984375 0.375 C 30.210938 0.53125 29.316406 0.609375 28.296875 0.609375 C 26.335938 0.609375 24.722656 0.3125 23.453125 -0.28125 C 22.191406 -0.875 21.320312 -1.691406 20.84375 -2.734375 C 19.5625 -1.722656 18.125 -0.910156 16.53125 -0.296875 C 14.945312 0.304688 13.085938 0.609375 10.953125 0.609375 C 4.660156 0.609375 1.515625 -1.890625 1.515625 -6.890625 C 1.515625 -9.492188 2.21875 -11.476562 3.625 -12.84375 C 5.03125 -14.21875 7.050781 -15.160156 9.6875 -15.671875 C 12.320312 -16.179688 15.769531 -16.4375 20.03125 -16.4375 L 20.03125 -17.75 C 20.03125 -18.800781 19.664062 -19.597656 18.9375 -20.140625 C 18.21875 -20.679688 17.28125 -20.953125 16.125 -20.953125 C 15.082031 -20.953125 14.179688 -20.765625 13.421875 -20.390625 C 12.660156 -20.015625 12.28125 -19.421875 12.28125 -18.609375 L 12.28125 -18.40625 L 2.328125 -18.40625 C 2.296875 -18.582031 2.28125 -18.820312 2.28125 -19.125 C 2.28125 -21.65625 3.488281 -23.664062 5.90625 -25.15625 C 8.320312 -26.644531 11.78125 -27.390625 16.28125 -27.390625 Z M 20.03125 -11.671875 C 17.15625 -11.671875 15.03125 -11.351562 13.65625 -10.71875 C 12.289062 -10.09375 11.609375 -9.257812 11.609375 -8.21875 C 11.609375 -6.53125 12.757812 -5.6875 15.0625 -5.6875 C 16.382812 -5.6875 17.539062 -6.039062 18.53125 -6.75 C 19.53125 -7.457031 20.03125 -8.335938 20.03125 -9.390625 Z M 20.03125 -11.671875 "/></g></g></g><g fill="#f4f6fc" fill-opacity="1"><g transform="translate(263.29648, 203.249987)"><g><path d="M 3.390625 -29.921875 L 3.390625 -36.765625 L 13.484375 -36.765625 L 13.484375 -29.921875 Z M 3.390625 0 L 3.390625 -26.78125 L 13.484375 -26.78125 L 13.484375 0 Z M 3.390625 0 "/></g></g></g><g clip-path="url(#0385cae19e)"><g clip-path="url(#cacb596e98)"><path fill="#f4f6fc" d="M 169.03125 181.953125 L 185.570312 181.953125 L 185.570312 198.492188 L 169.03125 198.492188 Z M 169.03125 181.953125 " fill-opacity="1" fill-rule="nonzero"/></g></g><g clip-path="url(#24c1f32aa7)"><path fill="#050a30" d="M 169.320312 207.316406 C 169.097656 207.183594 168.882812 207.121094 168.667969 207.054688 C 168.292969 206.933594 167.960938 206.757812 167.65625 206.492188 C 166.816406 205.75 165.519531 205.769531 164.625 206.507812 C 164.199219 206.859375 163.847656 207.285156 163.527344 207.734375 C 163.402344 207.910156 163.320312 207.90625 163.167969 207.777344 C 162.515625 207.21875 162.136719 206.503906 161.914062 205.691406 C 161.824219 205.367188 161.773438 205.03125 161.734375 204.699219 C 161.640625 203.929688 161.222656 203.378906 160.605469 202.960938 C 159.652344 202.308594 158.6875 201.675781 157.738281 201.015625 C 156.839844 200.394531 155.964844 199.738281 155.179688 198.972656 C 154.597656 198.410156 154.109375 197.777344 153.789062 197.027344 C 153.769531 196.976562 153.738281 196.929688 153.699219 196.890625 C 154.335938 199.796875 156.125 201.828125 158.632812 203.324219 C 158.410156 203.351562 157.761719 203.113281 157.199219 202.804688 C 156.753906 202.554688 156.335938 202.265625 155.953125 201.933594 C 155.558594 201.59375 155.222656 201.210938 154.90625 200.804688 C 155.75 202.640625 157.25 203.738281 159.070312 204.476562 C 158.398438 204.417969 157.753906 204.316406 157.175781 203.953125 C 156.613281 203.597656 156.125 203.15625 155.628906 202.722656 C 156.210938 203.964844 156.890625 205.105469 158.484375 205.320312 C 158.171875 205.488281 157.875 205.535156 157.566406 205.527344 C 157.257812 205.523438 157 205.355469 156.722656 205.207031 C 157.035156 206.070312 157.851562 206.625 159.039062 206.769531 C 158.625 207.019531 158.222656 207.117188 157.769531 207.046875 C 157.769531 207.144531 157.839844 207.195312 157.886719 207.25 C 158.558594 208.078125 159.425781 208.652344 160.371094 209.117188 C 160.511719 209.183594 160.539062 209.21875 160.425781 209.351562 C 159.203125 210.726562 157.808594 211.894531 156.242188 212.859375 C 155.132812 213.546875 154.0625 214.296875 152.988281 215.03125 C 152.949219 215.058594 152.921875 215.089844 152.902344 215.128906 C 153.226562 215.007812 153.550781 214.882812 153.875 214.757812 C 155.730469 214.039062 157.652344 213.664062 159.648438 213.660156 C 160.804688 213.660156 161.957031 213.589844 163.074219 213.25 C 164.65625 212.765625 165.800781 211.753906 166.59375 210.324219 C 166.878906 209.816406 167.132812 209.289062 167.398438 208.769531 C 167.53125 208.515625 167.679688 208.265625 167.847656 208.03125 C 168.164062 207.589844 168.589844 207.347656 169.140625 207.347656 C 169.179688 207.347656 169.222656 207.339844 169.261719 207.335938 C 169.28125 207.332031 169.300781 207.324219 169.320312 207.316406 Z M 169.320312 207.316406 " fill-opacity="1" fill-rule="nonzero"/></g><g clip-path="url(#052446f357)"><path fill="#050a30" d="M 166.839844 200.65625 C 167.46875 200.023438 168.171875 199.476562 168.855469 198.90625 C 170.417969 197.609375 172.128906 196.488281 173.589844 195.066406 C 174.570312 194.113281 175.527344 193.148438 176.324219 192.03125 C 176.472656 191.824219 176.480469 191.75 176.207031 191.675781 C 174.726562 191.269531 173.347656 190.648438 172.183594 189.617188 C 172.0625 189.511719 171.949219 189.394531 171.773438 189.230469 C 172.1875 189.234375 172.515625 189.21875 172.832031 189.105469 C 173.136719 188.996094 173.421875 188.859375 173.679688 188.652344 C 173.589844 188.5625 173.515625 188.601562 173.449219 188.609375 C 172.523438 188.773438 171.710938 188.488281 170.972656 187.949219 C 170.25 187.417969 169.460938 186.5 169.164062 185.792969 C 170.628906 186.867188 172.105469 187.707031 174.0625 187.117188 C 171.34375 186.757812 169.222656 185.582031 167.808594 183.289062 C 169.335938 184.820312 171.179688 185.625 173.351562 185.710938 C 169.476562 184.3125 166.652344 181.878906 165.433594 177.828125 C 165.535156 177.769531 165.550781 177.820312 165.5625 177.847656 C 166.328125 179.375 167.546875 180.453125 168.996094 181.296875 C 170.882812 182.394531 172.925781 183.121094 174.984375 183.8125 C 175.332031 183.929688 175.679688 184.050781 176.023438 184.175781 C 176.929688 184.511719 177.535156 185.121094 177.789062 186.070312 C 177.980469 186.804688 178.257812 187.507812 178.707031 188.128906 C 179.09375 188.660156 179.566406 189.097656 180.167969 189.386719 C 180.382812 189.492188 180.507812 189.484375 180.640625 189.253906 C 181.011719 188.621094 181.410156 188.003906 181.894531 187.449219 C 182.855469 186.355469 184.035156 185.871094 185.492188 186.144531 C 185.886719 186.222656 186.273438 186.363281 186.574219 186.621094 C 187.003906 186.988281 187.507812 187.125 188.039062 187.21875 C 188.375 187.277344 188.710938 187.355469 189.09375 187.4375 C 188.984375 187.546875 188.886719 187.53125 188.804688 187.546875 C 188.003906 187.671875 187.421875 188.109375 187.003906 188.789062 C 186.5625 189.507812 186.265625 190.292969 185.953125 191.070312 C 185.472656 192.261719 184.921875 193.40625 184.085938 194.398438 C 182.765625 195.972656 181.039062 196.859375 179.078125 197.335938 C 177.679688 197.679688 176.238281 197.773438 174.820312 197.996094 C 172.476562 198.359375 170.242188 199.097656 168.085938 200.070312 C 167.667969 200.261719 167.257812 200.460938 166.839844 200.65625 Z M 166.839844 200.65625 " fill-opacity="1" fill-rule="nonzero"/></g><g clip-path="url(#9775575f0f)"><path fill="#050a30" d="M 165.589844 191.480469 C 165.460938 191.417969 165.339844 191.394531 165.222656 191.367188 C 165.011719 191.320312 164.820312 191.234375 164.648438 191.105469 C 164.15625 190.742188 163.453125 190.808594 163 191.25 C 162.785156 191.460938 162.609375 191.707031 162.457031 191.964844 C 162.398438 192.066406 162.355469 192.066406 162.265625 192.003906 C 161.886719 191.730469 161.648438 191.359375 161.492188 190.925781 C 161.429688 190.753906 161.382812 190.574219 161.347656 190.394531 C 161.265625 189.980469 161.011719 189.699219 160.660156 189.5 C 160.113281 189.1875 159.558594 188.882812 159.015625 188.570312 C 158.5 188.273438 157.996094 187.953125 157.535156 187.574219 C 157.191406 187.292969 156.898438 186.972656 156.691406 186.574219 C 156.679688 186.550781 156.660156 186.527344 156.636719 186.507812 C 157.113281 188.058594 158.171875 189.082031 159.605469 189.785156 C 159.484375 189.8125 159.121094 189.710938 158.800781 189.566406 C 158.546875 189.449219 158.308594 189.3125 158.085938 189.148438 C 157.855469 188.980469 157.65625 188.789062 157.464844 188.582031 C 158.003906 189.542969 158.871094 190.070312 159.890625 190.390625 C 159.523438 190.390625 159.167969 190.363281 158.839844 190.191406 C 158.515625 190.023438 158.234375 189.804688 157.945312 189.589844 C 158.316406 190.242188 158.738281 190.828125 159.613281 190.875 C 159.464844 190.972656 159.300781 191.023438 159.121094 191.03125 C 158.957031 191.042969 158.804688 190.960938 158.648438 190.894531 C 158.859375 191.351562 159.328125 191.613281 159.976562 191.640625 C 159.761719 191.792969 159.550781 191.863281 159.300781 191.847656 C 159.304688 191.898438 159.34375 191.925781 159.371094 191.953125 C 159.773438 192.375 160.269531 192.644531 160.804688 192.855469 C 160.886719 192.890625 160.902344 192.90625 160.84375 192.980469 C 160.242188 193.78125 159.535156 194.480469 158.726562 195.074219 C 158.152344 195.496094 157.605469 195.949219 157.054688 196.398438 C 157.035156 196.414062 157.019531 196.429688 157.011719 196.453125 C 157.183594 196.371094 157.351562 196.292969 157.523438 196.210938 C 158.5 195.734375 159.527344 195.449219 160.613281 195.355469 C 161.242188 195.304688 161.863281 195.214844 162.457031 194.980469 C 163.296875 194.648438 163.871094 194.046875 164.242188 193.238281 C 164.371094 192.949219 164.488281 192.648438 164.609375 192.355469 C 164.667969 192.210938 164.738281 192.070312 164.820312 191.933594 C 164.972656 191.679688 165.191406 191.53125 165.492188 191.503906 C 165.515625 191.503906 165.539062 191.5 165.558594 191.496094 C 165.570312 191.492188 165.578125 191.484375 165.589844 191.480469 Z M 165.589844 191.480469 " fill-opacity="1" fill-rule="nonzero"/></g></svg>